<?xml version="1.0" standalone="no"?>
<!DOCTYPE svg PUBLIC "-//W3C//DTD SVG 20010904//EN"
 "http://www.w3.org/TR/2001/REC-SVG-20010904/DTD/svg10.dtd">
<svg version="1.0" xmlns="http://www.w3.org/2000/svg"
 width="100.000000pt" height="100.000000pt" viewBox="0 0 100.000000 100.000000"
 preserveAspectRatio="xMidYMid meet">
<metadata>
Created by potrace 1.11, written by Peter Selinger 2001-2013
</metadata>
<g transform="translate(0.000000,100.000000) scale(0.100000,-0.100000)"
fill="#000000" stroke="none">
<path d="M466 882 c-14 -20 -119 -190 -235 -377 l-211 -340 37 -5 c21 -3 58
-4 82 -2 34 3 41 1 35 -10 -6 -11 -5 -11 8 0 19 15 39 12 54 -7 9 -11 12 -12
19 -1 5 9 4 11 -3 6 -7 -4 -12 -2 -12 3 0 14 53 10 62 -4 5 -6 8 -6 8 3 0 6 5
12 11 12 5 0 7 -5 3 -12 -5 -7 -3 -8 7 -3 24 16 91 17 100 3 5 -7 9 -8 9 -3 0
13 39 13 59 1 9 -6 12 -5 8 0 -7 12 133 12 152 0 8 -5 12 -5 9 0 -4 5 29 10
73 10 56 1 77 -2 72 -10 -5 -8 -3 -8 8 0 15 12 49 15 49 4 0 -4 7 -7 15 -7 8
0 12 3 10 7 -2 4 11 7 30 7 22 0 32 -4 28 -11 -4 -7 -1 -7 6 0 10 9 9 17 -4
37 -9 15 -13 32 -9 39 4 7 4 10 -1 6 -10 -10 -46 36 -48 61 0 11 -6 19 -12 18
-5 -1 -9 6 -9 15 1 10 -2 15 -7 12 -5 -3 -9 0 -9 5 0 6 0 13 0 16 0 2 -12 17
-25 31 -14 15 -25 33 -25 40 0 8 -4 14 -10 14 -5 0 -10 4 -10 10 0 5 -21 42
-47 82 -25 39 -46 78 -46 85 0 7 -4 13 -8 13 -9 0 -42 51 -42 67 0 7 -4 10 -9
7 -4 -3 -8 1 -8 9 0 8 -7 20 -15 27 -9 7 -14 19 -11 27 3 8 1 11 -4 8 -9 -6
-14 8 -11 28 1 5 -2 6 -7 3 -5 -3 -19 17 -33 44 -36 72 -53 79 -83 32z"/>
<path d="M388 143 c7 -3 16 -2 19 1 4 3 -2 6 -13 5 -11 0 -14 -3 -6 -6z"/>
</g>
</svg>
